<svg xmlns="http://www.w3.org/2000/svg" width="17.034" height="17" viewBox="0 0 17.034 17">
  <g id="ic_check_circle" transform="translate(-3.011 -2.999)">
    <path id="Path_9910" data-name="Path 9910" d="M10.3,14.676a.7.7,0,0,1-.472-.236L7,11.607a.708.708,0,0,1,.944-.944L10.273,13l8.056-8a.708.708,0,0,1,.944.944l-8.5,8.5a.7.7,0,0,1-.472.236Z" transform="translate(-0.218 -0.107)" fill="#fae0a0"/>
    <path id="Path_9911" data-name="Path 9911" d="M11.5,20a8.5,8.5,0,0,1-7.432-4.4,8.188,8.188,0,0,1-1.011-3.22A8.5,8.5,0,0,1,7.4,4.058a8.188,8.188,0,0,1,3.22-1.011,8.367,8.367,0,0,1,3.353.321.708.708,0,1,1-.406,1.35,7.2,7.2,0,0,0-2.833-.264A7.081,7.081,0,0,0,7,17a7.084,7.084,0,0,0,7.886.708,7.083,7.083,0,0,0,2.078-1.738,7.007,7.007,0,0,0,1.549-5.2A.745.745,0,1,1,20,10.621a8.5,8.5,0,0,1-4.354,8.32A8.188,8.188,0,0,1,12.379,20Z" transform="translate(0 0)" fill="#fae0a0"/>
  </g>
</svg>
