<svg xmlns="http://www.w3.org/2000/svg" xmlns:xlink="http://www.w3.org/1999/xlink" width="48" height="48" viewBox="0 0 48 48">
  <defs>
    <linearGradient id="linear-gradient" x1="0.15" y1="0.187" x2="0.789" y2="0.889" gradientUnits="objectBoundingBox">
      <stop offset="0" stop-color="#feaf6c"/>
      <stop offset="1" stop-color="#ffdf01"/>
    </linearGradient>
    <filter id="Rectangle_9091">
      <feOffset dy="-1" input="SourceAlpha"/>
      <feGaussianBlur stdDeviation="1.5" result="blur"/>
      <feFlood flood-opacity="0.161" result="color"/>
      <feComposite operator="out" in="SourceGraphic" in2="blur"/>
      <feComposite operator="in" in="color"/>
      <feComposite operator="in" in2="SourceGraphic"/>
    </filter>
  </defs>
  <g id="ic_buy_home_48" transform="translate(-213 -119)">
    <g data-type="innerShadowGroup">
      <rect id="Rectangle_9091-2" data-name="Rectangle 9091" width="48" height="48" rx="24" transform="translate(213 119)" fill="url(#linear-gradient)"/>
      <g transform="matrix(1, 0, 0, 1, 213, 119)" filter="url(#Rectangle_9091)">
        <rect id="Rectangle_9091-3" data-name="Rectangle 9091" width="48" height="48" rx="24" fill="#fff"/>
      </g>
    </g>
    <path id="cart-arrow-down" d="M3.25,4.279A1.029,1.029,0,0,1,4.279,3.25H7.021a1.029,1.029,0,0,1,1.012.845l2.589,14.241H22.675L25.223,8.143a1.029,1.029,0,1,1,2,.5L24.476,19.614a1.029,1.029,0,0,1-1,.779H9.764a1.029,1.029,0,0,1-1.012-.845L6.163,5.307H4.279A1.029,1.029,0,0,1,3.25,4.279Zm6.857,19.543a2.057,2.057,0,1,0,2.057-2.057A2.054,2.054,0,0,0,10.107,23.821Zm8.914,0a2.057,2.057,0,1,0,2.057-2.057A2.054,2.054,0,0,0,19.021,23.821ZM17.65,5.65a1.029,1.029,0,0,0-2.057,0v4.374l-.987-.987a1.029,1.029,0,0,0-1.455,1.455l2.743,2.743a1.028,1.028,0,0,0,1.455,0l2.743-2.743a1.029,1.029,0,0,0-1.455-1.455l-.987.987Z" transform="translate(221.75 129.75)" fill="#fff" fill-rule="evenodd"/>
  </g>
</svg>
