<svg xmlns="http://www.w3.org/2000/svg" width="40" height="35.778" viewBox="0 0 40 35.778">
  <g id="ic_addimage_38" transform="translate(1 1)">
    <path id="Path_5295" data-name="Path 5295" d="M41,18.778V33.556a4.222,4.222,0,0,1-4.222,4.222H7.222A4.222,4.222,0,0,1,3,33.556v-19a4.222,4.222,0,0,1,4.222-4.222h3.167a4.222,4.222,0,0,0,3.378-1.689l2.217-2.956A4.222,4.222,0,0,1,19.361,4h5.278" transform="translate(-3 -4)" fill="none" stroke="#b4b4b4" stroke-linecap="round" stroke-linejoin="round" stroke-width="2"/>
    <path id="Path_5296" data-name="Path 5296" d="M21.278,4V9.278m0,5.278V9.278m0,0H16m5.278,0h5.278" transform="translate(11.444 -4)" fill="none" stroke="#b4b4b4" stroke-linecap="round" stroke-linejoin="round" stroke-width="2"/>
    <circle id="Ellipse_85" data-name="Ellipse 85" cx="8.444" cy="8.444" r="8.444" transform="translate(10.556 10.556)" fill="none" stroke="#b4b4b4" stroke-linecap="round" stroke-linejoin="round" stroke-width="2"/>
  </g>
</svg>
