<svg xmlns="http://www.w3.org/2000/svg" width="32" height="32" viewBox="0 0 32 32">
  <g id="ic_clock_32" transform="translate(1 1)">
    <path id="Path_9854" data-name="Path 9854" d="M0,0H32V32H0Z" transform="translate(-1 -1)" fill="none"/>
    <path id="Exclusion_1" data-name="Exclusion 1" d="M-18001-4231a12.913,12.913,0,0,1-9.193-3.807A12.911,12.911,0,0,1-18014-4244a12.916,12.916,0,0,1,3.809-9.195A12.909,12.909,0,0,1-18001-4257a12.911,12.911,0,0,1,9.191,3.808A12.918,12.918,0,0,1-17988-4244a12.913,12.913,0,0,1-3.807,9.191A12.912,12.912,0,0,1-18001-4231Zm0-19.173a.975.975,0,0,0-.977.972v5.2a.976.976,0,0,0,.285.687l3.25,3.25a.971.971,0,0,0,.689.285.971.971,0,0,0,.689-.285.967.967,0,0,0,.285-.689.967.967,0,0,0-.285-.689l-2.965-2.966v-4.8A.973.973,0,0,0-18001-4250.174Z" transform="translate(18016 4259)" fill="#ffdf01"/>
  </g>
</svg>
