<svg id="ic_map_marker_32" xmlns="http://www.w3.org/2000/svg" width="32" height="32" viewBox="0 0 32 32">
  <path id="Path_9273" data-name="Path 9273" d="M0,0H32V32H0Z" fill="none"/>
  <path id="location-pin-svgrepo-com" d="M19.25,0A11.251,11.251,0,0,0,8,11.25a11.074,11.074,0,0,0,2.135,6.53c.024.044.028.093.055.135l7.5,11.25a1.875,1.875,0,0,0,3.12,0l7.5-11.25c.028-.042.031-.091.055-.135A11.074,11.074,0,0,0,30.5,11.25,11.251,11.251,0,0,0,19.25,0Zm0,15A3.75,3.75,0,1,1,23,11.25,3.75,3.75,0,0,1,19.25,15Z" transform="translate(-3.251 1)" fill="#ffdf01"/>
</svg>
