<svg id="ic_phone32" xmlns="http://www.w3.org/2000/svg" width="32" height="32" viewBox="0 0 32 32">
  <path id="Path_9269" data-name="Path 9269" d="M0,0H32V32H0Z" fill="none"/>
  <path id="Path_9270" data-name="Path 9270" d="M24.631,19.343l-3.387-.387a2.654,2.654,0,0,0-2.187.76L16.6,22.17a20.06,20.06,0,0,1-8.787-8.787l2.467-2.467a2.654,2.654,0,0,0,.76-2.187l-.387-3.36A2.668,2.668,0,0,0,8,3.01H5.7A2.646,2.646,0,0,0,3.031,5.77,22.655,22.655,0,0,0,24.218,26.957a2.646,2.646,0,0,0,2.76-2.667V21.983A2.643,2.643,0,0,0,24.631,19.343Z" transform="translate(1.009 1.003)" fill="#ffdf01"/>
</svg>
