<svg xmlns="http://www.w3.org/2000/svg" width="16.984" height="17" viewBox="0 0 16.984 17">
  <g id="ic_instagram_17" transform="translate(-4.015 -4.015)">
    <path id="Path_9948" data-name="Path 9948" d="M12.507,8.147a4.35,4.35,0,1,0,3.086,1.274,4.36,4.36,0,0,0-3.086-1.274Zm0,7.2a2.84,2.84,0,1,1,2.84-2.84A2.84,2.84,0,0,1,12.507,15.347Zm5.562-7.381A1.063,1.063,0,1,1,17.006,6.9,1.063,1.063,0,0,1,18.069,7.966Zm2.882,1.063a5.009,5.009,0,0,0-1.372-3.563,5.009,5.009,0,0,0-3.563-1.4C14.634,4,10.38,4,9,4.063A5.03,5.03,0,0,0,5.435,5.435,5.009,5.009,0,0,0,4.063,9C4,10.38,4,14.634,4.063,16.017a5.009,5.009,0,0,0,1.372,3.563A5.03,5.03,0,0,0,9,20.951c1.4.085,5.615.085,7.019,0a5.009,5.009,0,0,0,3.563-1.372,5.009,5.009,0,0,0,1.372-3.563c.064-1.383.064-5.637,0-7.019Zm-1.808,8.508a2.871,2.871,0,0,1-1.617,1.617,19.143,19.143,0,0,1-5.02.34,19.047,19.047,0,0,1-5.009-.34,2.871,2.871,0,0,1-1.617-1.617c-.447-1.127-.351-3.786-.351-5.02s-.1-3.9.351-5.02A2.818,2.818,0,0,1,7.5,5.871a19.047,19.047,0,0,1,5.009-.34,19.143,19.143,0,0,1,5.02.34,2.871,2.871,0,0,1,1.617,1.617c.447,1.127.34,3.786.34,5.02s.106,3.9-.34,5.02Z" transform="translate(0 0)" fill="#b4b4b4"/>
  </g>
</svg>
