<svg xmlns="http://www.w3.org/2000/svg" width="17.5" height="15.5" viewBox="0 0 17.5 15.5">
  <g id="ic_envelope_17" transform="translate(-3.25 -4.25)">
    <path id="Path_5301" data-name="Path 5301" d="M19,4.25H5A1.76,1.76,0,0,0,3.25,6V18A1.76,1.76,0,0,0,5,19.75H19A1.76,1.76,0,0,0,20.75,18V6A1.76,1.76,0,0,0,19,4.25ZM5,5.75H19a.25.25,0,0,1,.25.25V7.54L12,11.16,4.75,7.54V6A.25.25,0,0,1,5,5.75Zm14,12.5H5A.25.25,0,0,1,4.75,18V9.21l6.91,3.46a.76.76,0,0,0,.68,0l6.91-3.46V18A.25.25,0,0,1,19,18.25Z" fill="#b4b4b4"/>
  </g>
</svg>
