<svg xmlns="http://www.w3.org/2000/svg" width="15.5" height="18.55" viewBox="0 0 15.5 18.55">
  <g id="ic_map_maker_15" transform="translate(-4.25 -2.7)">
    <path id="Path_9949" data-name="Path 9949" d="M12,21.25a.69.69,0,0,1-.41-.13c-.3-.19-7.34-4.92-7.34-10.67a7.75,7.75,0,1,1,15.5,0c0,5.75-7,10.48-7.34,10.67a.69.69,0,0,1-.41.13Zm0-17a6.23,6.23,0,0,0-6.25,6.2c0,4.21,4.79,8.06,6.25,9.13,1.46-1.07,6.25-4.92,6.25-9.13A6.23,6.23,0,0,0,12,4.25Z" fill="#b4b4b4"/>
    <path id="Path_9950" data-name="Path 9950" d="M12,12.75A2.75,2.75,0,1,1,14.75,10,2.75,2.75,0,0,1,12,12.75Zm0-4A1.25,1.25,0,1,0,13.25,10,1.25,1.25,0,0,0,12,8.75Z" fill="#b4b4b4"/>
  </g>
</svg>
