<svg xmlns="http://www.w3.org/2000/svg" width="17" height="17" viewBox="0 0 17 17">
  <g id="ic_odo" transform="translate(-1573 -7788)">
    <rect id="Rectangle_9069" data-name="Rectangle 9069" width="17" height="17" transform="translate(1573 7788)" fill="none"/>
    <g id="speedometer2-svgrepo-com" transform="translate(1573.5 7788.477)">
      <path id="Path_9906" data-name="Path 9906" d="M8,4a.5.5,0,0,1,.5.5V6a.5.5,0,0,1-1,0V4.5A.5.5,0,0,1,8,4ZM3.732,5.732a.5.5,0,0,1,.707,0l.915.914a.5.5,0,1,1-.708.708l-.914-.915a.5.5,0,0,1,0-.707ZM2,10a.5.5,0,0,1,.5-.5H4.086a.5.5,0,0,1,0,1H2.5A.5.5,0,0,1,2,10Zm9.5,0a.5.5,0,0,1,.5-.5h1.5a.5.5,0,0,1,0,1H12A.5.5,0,0,1,11.5,10Zm.754-4.246a.389.389,0,0,0-.527-.02L7.547,9.31a.91.91,0,1,0,1.3,1.258l3.434-4.3a.389.389,0,0,0-.029-.518Z" fill="#b4b4b4"/>
      <path id="Path_9907" data-name="Path 9907" d="M0,10a8,8,0,1,1,15.547,2.661,2.282,2.282,0,0,1-2.932,1.25A16.556,16.556,0,0,0,8,13a16.556,16.556,0,0,0-4.615.911,2.282,2.282,0,0,1-2.932-1.25A7.988,7.988,0,0,1,0,10ZM8,3a7,7,0,0,0-6.6,9.329,1.287,1.287,0,0,0,1.68.63A17.548,17.548,0,0,1,8,12a17.47,17.47,0,0,1,4.923.96,1.288,1.288,0,0,0,1.68-.631A7,7,0,0,0,8,3Z" fill="#b4b4b4" fill-rule="evenodd"/>
    </g>
  </g>
</svg>
