<svg xmlns="http://www.w3.org/2000/svg" width="17" height="17" viewBox="0 0 17 17">
  <g id="ic_telegram_17" transform="translate(-4 -4)">
    <path id="Path_9947" data-name="Path 9947" d="M12.5,4A8.5,8.5,0,1,0,21,12.5,8.5,8.5,0,0,0,12.5,4Zm4.176,5.822L15.284,16.4c-.106.468-.383.574-.776.361l-2.125-1.573-1.062.988a.542.542,0,0,1-.425.212l.149-2.125L14.976,10.7c.181-.149,0-.234-.255-.085L9.9,13.648l-2.125-.659c-.457-.138-.468-.457.1-.669l8.192-3.188C16.463,9.015,16.8,9.249,16.676,9.822Z" fill="#b4b4b4"/>
  </g>
</svg>
