<svg xmlns="http://www.w3.org/2000/svg" width="17" height="17" viewBox="0 0 17 17">
  <g id="ic_transmission" transform="translate(-130 -419)">
    <g id="transmission-svgrepo-com" transform="translate(132.417 421.417)">
      <path id="Path_9901" data-name="Path 9901" d="M2,3.157A1.157,1.157,0,1,1,3.59,4.229v3.12H7.349V4.229a1.157,1.157,0,1,1,.867,0v3.12H10.1a10.265,10.265,0,0,0,1.211-.038.731.731,0,0,0,.456-.173.731.731,0,0,0,.173-.456,10.264,10.264,0,0,0,.038-1.211V4.229a1.157,1.157,0,1,1,.867,0V5.5A10.6,10.6,0,0,1,12.8,6.8a1.575,1.575,0,0,1-.42.954,1.575,1.575,0,0,1-.954.42,10.6,10.6,0,0,1-1.3.046H8.217v3.12a1.157,1.157,0,1,1-.867,0V8.217H3.59v3.12a1.157,1.157,0,1,1-.867,0V4.229A1.157,1.157,0,0,1,2,3.157Z" transform="translate(-2 -2)" fill="#b4b4b4"/>
      <path id="Path_9902" data-name="Path 9902" d="M17.25,14.684a.434.434,0,0,1,.434-.434h1.322a1.449,1.449,0,0,1,.476,2.809l.885,1.446a.434.434,0,1,1-.74.453l-1.112-1.817h-.4v1.59a.434.434,0,1,1-.867,0Zm.867,1.59h.888a.579.579,0,0,0,0-1.157h-.888Z" transform="translate(-8.431 -7.166)" fill="#b4b4b4" fill-rule="evenodd"/>
    </g>
    <rect id="Rectangle_9064" data-name="Rectangle 9064" width="17" height="17" transform="translate(130 419)" fill="rgba(255,255,255,0)"/>
  </g>
</svg>
