<svg id="img_HeraHolding" xmlns="http://www.w3.org/2000/svg" xmlns:xlink="http://www.w3.org/1999/xlink" width="346.132" height="21" viewBox="0 0 346.132 21">
  <defs>
    <linearGradient id="linear-gradient" x1="0.23" y1="0.5" x2="22.076" y2="0.5" gradientUnits="objectBoundingBox">
      <stop offset="0" stop-color="#f4c22e"/>
      <stop offset="0" stop-color="#ecc33e"/>
      <stop offset="0.32" stop-color="#fcf38f"/>
      <stop offset="0.68" stop-color="#dcac26"/>
      <stop offset="1" stop-color="#faf399"/>
    </linearGradient>
    <linearGradient id="linear-gradient-2" x1="-0.95" x2="20.887" xlink:href="#linear-gradient"/>
    <linearGradient id="linear-gradient-3" x1="-2.109" x2="19.607" xlink:href="#linear-gradient"/>
    <linearGradient id="linear-gradient-4" x1="-2.613" x2="14.69" xlink:href="#linear-gradient"/>
    <linearGradient id="linear-gradient-5" x1="-5.435" x2="16.411" xlink:href="#linear-gradient"/>
    <linearGradient id="linear-gradient-6" x1="-6.564" y1="0.501" x2="15.135" y2="0.501" xlink:href="#linear-gradient"/>
    <linearGradient id="linear-gradient-7" x1="-7.791" x2="14.072" xlink:href="#linear-gradient"/>
    <linearGradient id="linear-gradient-8" x1="-29.629" x2="34.38" xlink:href="#linear-gradient"/>
    <linearGradient id="linear-gradient-9" x1="-10.626" x2="11.22" xlink:href="#linear-gradient"/>
    <linearGradient id="linear-gradient-10" x1="-11.802" x2="10.044" xlink:href="#linear-gradient"/>
    <linearGradient id="linear-gradient-11" x1="-12.812" x2="8.767" xlink:href="#linear-gradient"/>
    <linearGradient id="linear-gradient-12" x1="-14.828" x2="6.992" xlink:href="#linear-gradient"/>
    <linearGradient id="linear-gradient-13" x1="-15.924" y1="0.499" x2="5.792" y2="0.499" xlink:href="#linear-gradient"/>
    <linearGradient id="linear-gradient-14" x1="-17.077" y1="0.501" x2="4.622" y2="0.501" xlink:href="#linear-gradient"/>
    <linearGradient id="linear-gradient-15" x1="-18.364" x2="3.482" xlink:href="#linear-gradient"/>
    <linearGradient id="linear-gradient-16" x1="-19.412" y1="0.499" x2="2.304" y2="0.499" xlink:href="#linear-gradient"/>
    <linearGradient id="linear-gradient-17" x1="-8.913" x2="12.821" xlink:href="#linear-gradient"/>
  </defs>
  <g id="Layer_1" data-name="Layer 1">
    <path id="Path_10009" data-name="Path 10009" d="M0,20.955V.233H5.689v8.2l5.225.033V.2H16.67l-.033.133V11.791h-.06v4.642h.066l-.066.212v4.31H10.914V12.785H5.689v8.169Z" transform="translate(0 -0.067)" fill="url(#linear-gradient)"/>
    <path id="Path_10010" data-name="Path 10010" d="M29.66.25H46.33L44.679,4.726H35.4V8.512h9.283v4.35H35.4v3.654H46.337l-1.625,4.456H29.66Z" transform="translate(-9.993 -0.084)" fill="url(#linear-gradient-2)"/>
    <path id="Path_10011" data-name="Path 10011" d="M64.876,20.985H59.153V10.993l-.033-.033.033-.033V.231L72.892.2a3.189,3.189,0,0,1,1.989.564,3.017,3.017,0,0,1,1.008,1.863v6.87a3.315,3.315,0,0,1-.789,1.664,2.725,2.725,0,0,1-1.472.729V12H71.48l4.376,9.064H69.961l-4.29-9.011V8.5h4.177V4.647H64.677Z" transform="translate(-19.918 -0.065)" fill="url(#linear-gradient-3)"/>
    <path id="Path_10012" data-name="Path 10012" d="M96.409,0h6.127l7.241,20.854H97.927V16.438h4.642L99.505,7.075,94.452,20.854H88.73Z" transform="translate(-29.894)" fill="url(#linear-gradient-4)"/>
    <path id="Path_10013" data-name="Path 10013" d="M142.41,20.955V.233h5.7v8.2l5.219.033V.2h5.756l-.033.133V11.791h-.033v4.642h.066l-.066.2v4.323h-5.689V12.785h-5.219v8.169Z" transform="translate(-47.98 -0.067)" fill="url(#linear-gradient-5)"/>
    <path id="Path_10014" data-name="Path 10014" d="M174.917,20.975a2.7,2.7,0,0,1-3-2.1q.04-4.343.033-8.328t-.033-7.957A2.99,2.99,0,0,1,172.935.731a3.17,3.17,0,0,1,1.989-.564H185.7a3.17,3.17,0,0,1,1.989.564A3.017,3.017,0,0,1,188.7,2.594q-.04,3.979-.04,7.957t.04,8.328q-.5,2.1-3,2.1Zm3.024-4.549h4.715V4.7h-4.715Z" transform="translate(-57.922 -0.055)" fill="url(#linear-gradient-6)"/>
    <path id="Path_10015" data-name="Path 10015" d="M207.2,16.522h9.283l1.651,4.449H201.48V.25h5.689Z" transform="translate(-67.881 -0.084)" fill="url(#linear-gradient-7)"/>
    <path id="Path_10016" data-name="Path 10016" d="M265.643,20.972H260V.25h5.689Z" transform="translate(-87.597 -0.084)" fill="url(#linear-gradient-8)"/>
    <path id="Path_10017" data-name="Path 10017" d="M289.547,20.972h-5.689v-.1h-.106V4.6h-5.079L278.6,20.972H272.91V.25h16.67Z" transform="translate(-91.947 -0.084)" fill="url(#linear-gradient-9)"/>
    <path id="Path_10018" data-name="Path 10018" d="M308.176,13.731v2.758h5.185V12.835h-3.2V8.486h8.892v7.957h.066l-.066.2v4.33H302.48V.25h16.67l-1.678,4.476h-9.283V7.484h-.06v6.273Z" transform="translate(-101.909 -0.084)" fill="url(#linear-gradient-10)"/>
    <path id="Path_10019" data-name="Path 10019" d="M333.534,16.5h9.091V12.717H334.88q-2.493,0-3-2.089V8.367h-.033V2.625A3.017,3.017,0,0,1,332.858.761,3.19,3.19,0,0,1,334.847.2h13.739c-.338.975-.663,1.823-.908,2.54S347.2,4.1,347,4.707h-9.084V8.393h7.745a3.2,3.2,0,0,1,1.989.564,3.017,3.017,0,0,1,1.008,1.863.666.666,0,0,1,0,.146,1.412,1.412,0,0,0,0,.153h.066v7.672c-.338,1.4-1.326,2.1-3,2.1l-4.343.066v.033l-9.462.066Z" transform="translate(-111.804 -0.065)" fill="url(#linear-gradient-11)"/>
    <path id="Path_10020" data-name="Path 10020" d="M384.742,13.731v2.758h5.185V12.835h-3.2V8.486h8.892v7.957h.066l-.066.2v4.33H379V.25h16.67l-1.631,4.476h-9.283V7.484h-.033v6.273Z" transform="translate(-127.69 -0.084)" fill="url(#linear-gradient-12)"/>
    <path id="Path_10021" data-name="Path 10021" d="M414.246,21h-5.722V11.01l-.033-.033.033-.033V.248h13.739a3.2,3.2,0,0,1,1.989.564,3.017,3.017,0,0,1,1.008,1.863V9.511a3.315,3.315,0,0,1-.789,1.664,2.725,2.725,0,0,1-1.465.729v.113H420.85l4.376,9.064h-5.895l-4.277-9V8.516h4.177V4.664h-5.185Z" transform="translate(-137.625 -0.082)" fill="url(#linear-gradient-13)"/>
    <path id="Path_10022" data-name="Path 10022" d="M440.994,20.975q-2.493,0-3-2.1.04-4.343.04-8.328t-.04-7.957A3.017,3.017,0,0,1,439,.731a3.176,3.176,0,0,1,1.989-.564h10.775a3.17,3.17,0,0,1,1.989.564,2.991,2.991,0,0,1,1.015,1.863q-.04,3.979-.033,7.957t.033,8.328a2.7,2.7,0,0,1-3,2.1Zm3.03-4.549h4.715V4.7h-4.715Z" transform="translate(-147.564 -0.055)" fill="url(#linear-gradient-14)"/>
    <path id="Path_10023" data-name="Path 10023" d="M484.12,20.972H467.45V.25h5.669l.066,16.372h5.086V.349h.152V.25h5.689Z" transform="translate(-157.489 -0.084)" fill="url(#linear-gradient-15)"/>
    <path id="Path_10024" data-name="Path 10024" d="M502.432,16.851V21H496.71V.248h13.739a3.2,3.2,0,0,1,1.989.564,3.017,3.017,0,0,1,1.041,1.83v6.87a3.4,3.4,0,0,1-.789,1.664,2.725,2.725,0,0,1-1.465.729v.113H502.4v4.847Zm4.986-8.335V4.724H502.4V8.543Z" transform="translate(-167.348 -0.082)" fill="url(#linear-gradient-16)"/>
    <path id="Path_10025" data-name="Path 10025" d="M247.756,2.475A3.017,3.017,0,0,0,246.748.611a3.2,3.2,0,0,0-1.989-.564L231,.081V20.836h13.739c1.664,0,2.652-.663,3-2.1V10.405Q247.736,6.413,247.756,2.475Zm-4.589,9.787a3.587,3.587,0,0,1-3.587,3.587H235.6V5.034h3.979a3.587,3.587,0,0,1,3.587,3.6Z" transform="translate(-77.827 -0.015)" fill="url(#linear-gradient-17)"/>
  </g>
</svg>
